Coordinates
version=1
nRows=11
nColumns=63
inDegrees=yes

Units are S.I. units (second, meters, Newtons, ...)
If the header above contains a line with 'inDegrees', this indicates whether rotational values are in degrees (yes) or radians (no).

endheader
time	pelvis_tilt	pelvis_list	pelvis_rotation	pelvis_tx	pelvis_ty	pelvis_tz	hip_flexion_r	hip_adduction_r	hip_rotation_r	knee_angle_r	knee_angle_r_beta	ankle_angle_r	subtalar_angle_r	mtp_angle_r	hip_flexion_l	hip_adduction_l	hip_rotation_l	knee_angle_l	knee_angle_l_beta	ankle_angle_l	subtalar_angle_l	mtp_angle_l	L5_S1_Flex_Ext	L5_S1_Lat_Bending	L5_S1_axial_rotation	L4_L5_Flex_Ext	L4_L5_Lat_Bending	L4_L5_axial_rotation	L3_L4_Flex_Ext	L3_L4_Lat_Bending	L3_L4_axial_rotation	L2_L3_Flex_Ext	L2_L3_Lat_Bending	L2_L3_axial_rotation	L1_L2_Flex_Ext	L1_L2_Lat_Bending	L1_L2_axial_rotation	L1_T12_Flex_Ext	L1_T12_Lat_Bending	L1_T12_axial_rotation	Abs_r3	Abs_r2	Abs_r1	Abs_t1	Abs_t2	neck_flexion	neck_bending	neck_rotation	arm_flex_r	arm_add_r	arm_rot_r	elbow_flex_r	pro_sup_r	wrist_flex_r	wrist_dev_r	arm_flex_l	arm_add_l	arm_rot_l	elbow_flex_l	pro_sup_l	wrist_flex_l	wrist_dev_l
0.000000	4.034122	-2.629777	97.692739	0.129155	0.589452	0.870034	8.727910	-1.204060	-15.229370	7.380924	0.128821	25.351604	16.212538	0.000000	10.821860	1.566917	12.823471	6.673640	0.116477	21.290475	-12.025182	0.000000	0.317665	0.157588	-0.191103	0.589935	0.209592	-0.203047	0.521892	0.383160	-0.203047	0.363059	0.383160	-0.167215	0.294984	0.321353	-0.155271	0.181514	0.244104	-0.143327	2.269048	1.782667	-1.062857	0.000000	0.000000	26.156064	5.383815	11.010464	31.067762	-7.584410	84.718725	43.121476	59.563996	5.686817	3.631529	21.192847	-9.384444	66.606417	45.333891	87.167082	-1.720296	8.046141
0.016667	3.818051	-2.582317	98.337027	0.128695	0.589580	0.869082	8.691746	-1.613465	-16.249433	7.945972	0.138683	25.700333	16.417956	0.000000	10.677530	1.892020	13.660070	6.686762	0.116706	20.953405	-12.789013	0.000000	0.322010	0.114696	-0.284761	0.598005	0.152546	-0.302558	0.529030	0.278873	-0.302558	0.368025	0.278873	-0.249166	0.299019	0.233889	-0.231368	0.183997	0.177665	-0.213571	2.300086	1.297470	-1.583755	0.000000	0.000000	26.107485	5.456858	10.185985	30.945061	-7.834585	86.133930	43.238267	47.715495	6.319347	4.818831	21.971284	-8.907748	67.560097	44.464553	87.121456	3.260397	10.980524
0.033333	3.633420	-2.544298	98.882435	0.128331	0.589735	0.868245	8.659660	-1.954382	-17.074400	8.406572	0.146722	26.011598	16.583603	0.000000	10.556919	2.162582	14.291695	6.690214	0.116766	20.714676	-13.305092	0.000000	0.325290	0.078747	-0.372743	0.604097	0.104733	-0.396039	0.534419	0.191464	-0.396039	0.371774	0.191464	-0.326150	0.302065	0.160580	-0.302853	0.185871	0.121978	-0.279557	2.323516	0.890796	-2.073083	0.000000	0.000000	26.066222	5.556388	9.625162	30.891607	-8.011255	87.668802	43.289145	39.429741	6.490257	5.501585	22.421471	-8.531849	68.014149	43.831175	87.035939	7.351374	13.436356
0.050000	3.478467	-2.514729	99.336408	0.128053	0.589913	0.867516	8.631454	-2.231722	-17.721199	8.771554	0.153093	26.288020	16.713557	0.000000	10.458094	2.382612	14.738932	6.686133	0.116695	20.562808	-13.602880	0.000000	0.327603	0.049259	-0.454992	0.608392	0.065515	-0.483429	0.538219	0.119769	-0.483429	0.374418	0.119769	-0.398118	0.304212	0.100450	-0.369681	0.187192	0.076303	-0.341244	2.340037	0.557232	-2.530530	0.000000	0.000000	26.031188	5.678390	9.301134	30.899972	-8.122604	89.295654	43.283135	34.338286	6.255175	5.737404	22.582307	-8.247111	68.030838	43.409395	86.917599	10.630441	15.451842
0.066667	3.351426	-2.492616	99.706387	0.127853	0.590107	0.866889	8.606928	-2.450396	-18.206758	9.049752	0.157948	26.532217	16.811896	0.000000	10.379122	2.556119	15.022370	6.676656	0.116530	20.486321	-13.711843	0.000000	0.329046	0.025756	-0.531453	0.611072	0.034256	-0.564669	0.540590	0.062624	-0.564669	0.376067	0.062624	-0.465021	0.305552	0.052522	-0.431806	0.188017	0.039897	-0.398590	2.350345	0.291362	-2.955782	0.000000	0.000000	26.001295	5.818848	9.187039	30.962730	-8.176819	90.986800	43.229263	32.072681	5.669729	5.583901	22.492686	-8.043895	67.672428	43.174853	86.773508	13.175408	17.065186
0.083333	3.250536	-2.476968	99.999817	0.127723	0.590311	0.866354	8.585885	-2.615313	-18.548007	9.249997	0.161443	26.746810	16.882696	0.000000	10.318069	2.687114	15.162596	6.663921	0.116307	20.473734	-13.661441	0.000000	0.329717	0.007759	-0.602069	0.612318	0.010319	-0.639698	0.541693	0.018865	-0.639698	0.376834	0.018865	-0.526810	0.306176	0.015822	-0.489181	0.188401	0.012019	-0.451552	2.355139	0.087771	-3.348526	0.000000	0.000000	25.975459	5.973748	9.256016	31.072454	-8.182083	92.714554	43.136554	32.264480	4.789547	5.098692	22.191504	-7.912564	67.001184	43.103185	86.610736	15.064081	18.314591
0.100000	3.174031	-2.466792	100.224140	0.127652	0.590522	0.865904	8.568125	-2.731384	-18.761875	9.381120	0.163731	26.934417	16.930035	0.000000	10.273001	2.779605	15.180196	6.650066	0.116066	20.513566	-13.481139	0.000000	0.329714	-0.005212	-0.666783	0.612312	-0.006932	-0.708457	0.541688	-0.012672	-0.708457	0.376830	-0.012672	-0.583436	0.306173	-0.010628	-0.541762	0.188399	-0.008073	-0.500088	2.355116	-0.058956	-3.708450	0.000000	0.000000	25.952590	6.139073	9.481203	31.221715	-8.146582	94.451230	43.014035	34.545235	3.670258	4.339391	21.717658	-7.843480	66.079371	43.170030	86.436354	16.374269	19.238261
0.116667	3.120148	-2.461096	100.386800	0.127632	0.590732	0.865533	8.553450	-2.803519	-18.865289	9.451955	0.164968	27.097657	16.957992	0.000000	10.241986	2.837603	15.095757	6.637227	0.115841	20.594339	-13.200400	0.000000	0.329134	-0.013634	-0.725541	0.611235	-0.018134	-0.770887	0.540735	-0.033150	-0.770887	0.376168	-0.033150	-0.634848	0.305634	-0.027803	-0.589502	0.188067	-0.021119	-0.544156	2.350974	-0.154233	-4.035240	0.000000	0.000000	25.931604	6.310808	9.835739	31.403088	-8.078501	96.169142	42.870733	38.546498	2.367489	3.363611	21.110044	-7.827004	64.969252	43.351027	86.257430	17.183779	19.874400
0.133333	3.087123	-2.458887	100.495240	0.127655	0.590938	0.865232	8.541660	-2.836629	-18.875178	9.471331	0.165306	27.239150	16.970643	0.000000	10.223090	2.865117	14.929868	6.627543	0.115672	20.704571	-12.848687	0.000000	0.328075	-0.017987	-0.778284	0.609269	-0.023923	-0.826927	0.538995	-0.043734	-0.826927	0.374957	-0.043734	-0.680999	0.304651	-0.036680	-0.632356	0.187462	-0.027862	-0.583713	2.343410	-0.203476	-4.328583	0.000000	0.000000	25.911412	6.484939	10.292760	31.609144	-7.986025	97.840603	42.715671	43.899822	0.936869	2.228967	20.407558	-7.853501	63.733093	43.621813	86.081037	17.570420	20.261211
0.150000	3.073192	-2.459172	100.556902	0.127710	0.591133	0.864994	8.532558	-2.835623	-18.808472	9.448083	0.164900	27.361515	16.972067	0.000000	10.214380	2.866157	14.703115	6.623150	0.115596	20.832781	-12.455462	0.000000	0.326635	-0.018750	-0.824958	0.606594	-0.024937	-0.876518	0.536629	-0.045588	-0.876518	0.373311	-0.045588	-0.721838	0.303313	-0.038234	-0.670278	0.186639	-0.029043	-0.618718	2.333121	-0.212100	-4.588167	0.000000	0.000000	25.890928	6.657450	10.825407	31.832456	-7.877338	99.437928	42.557878	50.236758	-0.565975	0.993072	19.649096	-7.913331	62.433158	43.958027	85.914243	17.611999	20.436900
0.166667	3.076592	-2.460959	100.579231	0.127790	0.591313	0.864811	8.525943	-2.805412	-18.682099	9.391041	0.163905	27.467372	16.966340	0.000000	10.213922	2.844733	14.436084	6.626187	0.115649	20.967490	-12.050189	0.000000	0.324911	-0.016400	-0.865505	0.603392	-0.021812	-0.919599	0.533796	-0.039875	-0.919599	0.371341	-0.039875	-0.757317	0.301712	-0.033443	-0.703223	0.185654	-0.025404	-0.649129	2.320807	-0.185519	-4.813679	0.000000	0.000000	25.869065	6.824326	11.406817	32.065598	-7.760626	100.933431	42.406378	57.188860	-2.085414	-0.286458	18.873553	-7.996857	61.131712	44.335308	85.764120	17.386324	20.439669
